<svg version="1.1" id="Layer_1" xmlns="http://www.w3.org/2000/svg" xmlns:xlink="http://www.w3.org/1999/xlink" x="0px" y="0px"
	 width="100%" viewBox="0 0 3000 3000" enable-background="new 0 0 3000 3000" xml:space="preserve">
<path fill="#FFFFFF" opacity="1.000000" stroke="none" 
	d="
M2.000000,1106.000000 
	C2.000000,737.333374 2.000000,369.666809 2.000000,2.000148 
	C1001.999756,2.000099 2001.999512,2.000099 3001.999512,2.000049 
	C3001.999512,1001.999573 3001.999512,2001.999146 3001.999756,3001.999023 
	C2002.000610,3001.999512 1002.001221,3001.999512 2.000904,3001.999756 
	C2.000000,2370.333252 2.000000,1738.666626 2.000000,1106.000000 
z"/>
<path fill="#DBAD99" opacity="1.000000" stroke="none" 
	d="
M1454.291260,74.285995 
	C1484.574219,64.905914 1513.633179,54.234558 1544.383911,49.348309 
	C1570.424683,45.210484 1596.324585,42.874523 1622.771973,45.597038 
	C1654.651978,48.878780 1684.967041,57.053547 1713.222534,71.914841 
	C1757.608032,95.259842 1791.957520,128.567276 1811.586060,175.501602 
	C1816.327393,186.838638 1819.989258,198.637924 1823.855469,210.321289 
	C1824.659180,212.750153 1824.265625,215.607330 1824.261108,218.266846 
	C1824.070068,330.927643 1823.791382,443.588440 1823.812012,556.249207 
	C1823.813354,563.618225 1821.245361,567.368408 1814.884399,570.840271 
	C1751.163452,605.620117 1687.656128,640.790955 1624.036011,675.755920 
	C1586.094238,696.608215 1548.021606,717.222229 1510.074829,738.065186 
	C1459.580688,765.799866 1409.165405,793.678101 1358.688599,821.444580 
	C1336.219971,833.804199 1313.766846,846.197388 1291.118164,858.220154 
	C1285.744263,861.072754 1283.483765,864.368835 1283.502075,870.608215 
	C1283.725464,946.270569 1283.676758,1021.933655 1283.759277,1097.596558 
	C1283.761963,1100.108887 1282.871582,1102.912598 1285.083130,1105.103394 
	C1287.720703,1105.861938 1289.614380,1104.159058 1291.566772,1103.094238 
	C1320.804199,1087.149414 1350.023926,1071.172241 1379.204346,1055.123291 
	C1401.670410,1042.767090 1424.050049,1030.253540 1446.513062,1017.891663 
	C1493.484863,992.041931 1540.472900,966.221375 1587.480957,940.437561 
	C1617.264160,924.101440 1647.122192,907.901733 1676.899048,891.554016 
	C1722.437500,866.553223 1767.956665,841.516968 1813.435059,816.407227 
	C1825.498169,809.746826 1826.160889,810.018188 1826.098755,823.752075 
	C1825.963135,853.750305 1826.666260,883.782654 1825.472046,913.739075 
	C1823.267578,969.034058 1824.459961,1024.338501 1823.846436,1079.633911 
	C1823.768433,1086.658203 1821.274048,1090.585327 1815.381958,1093.848267 
	C1792.370605,1106.591064 1769.542236,1119.664062 1746.655762,1132.631836 
	C1713.919556,1151.180298 1681.204956,1169.766968 1648.456909,1188.294556 
	C1620.344849,1204.199219 1592.203247,1220.052002 1564.066284,1235.912842 
	C1525.486084,1257.660767 1486.877319,1279.357910 1448.319946,1301.145752 
	C1414.983032,1319.983521 1381.709595,1338.933472 1348.389893,1357.801758 
	C1331.873413,1367.154907 1315.440186,1376.667847 1298.715332,1385.634766 
	C1292.064209,1389.200562 1289.655518,1393.500854 1289.667358,1401.315552 
	C1289.935059,1577.973022 1289.872925,1754.631104 1289.873047,1931.289062 
	C1289.873047,1946.621582 1289.642456,1961.959473 1289.989014,1977.284180 
	C1290.125610,1983.323730 1288.193481,1986.776367 1282.773315,1989.924194 
	C1224.902222,2023.533691 1167.206665,2057.445801 1109.485962,2091.313965 
	C1076.749878,2110.522217 1044.072021,2129.829834 1011.318054,2149.007568 
	C1008.250427,2150.803711 1005.350647,2153.252197 1000.793335,2153.321289 
	C999.113037,2149.656250 999.877502,2145.662109 999.874207,2141.854248 
	C999.770203,2022.193604 1000.424866,1902.527710 999.528870,1782.873291 
	C996.798767,1418.261353 998.940369,1053.645264 997.958679,689.032654 
	C997.954163,687.366089 998.176147,685.665100 997.920288,684.038757 
	C996.757019,676.645996 1000.370728,672.948853 1006.697327,669.415527 
	C1055.535645,642.139771 1104.102295,614.378235 1152.818604,586.883301 
	C1192.547485,564.460754 1232.398804,542.255615 1272.136475,519.848694 
	C1310.130615,498.424957 1348.029175,476.831573 1386.005615,455.376434 
	C1414.417725,439.324860 1442.906616,423.409271 1471.325928,407.370453 
	C1510.183228,385.440918 1549.000366,363.440216 1587.847534,341.492737 
	C1615.388794,325.932709 1642.943970,310.396942 1670.506348,294.874207 
	C1708.515259,273.468170 1746.508423,252.034164 1784.590942,230.759842 
	C1788.984253,228.305511 1790.801880,225.878769 1789.431274,220.481537 
	C1782.964233,195.015274 1773.204346,171.212067 1756.399048,150.660202 
	C1741.660767,132.636017 1723.715820,118.459274 1703.701050,106.854492 
	C1664.292480,84.004990 1621.375977,77.000565 1576.603516,80.375404 
	C1550.007324,82.380150 1524.061035,88.447937 1498.689941,96.790840 
	C1444.925781,114.470428 1391.163574,132.156342 1337.377197,149.768402 
	C1268.091431,172.455688 1198.785278,195.080536 1129.483276,217.718414 
	C1066.195435,238.391754 1002.903259,259.051849 939.609802,279.708069 
	C875.999512,300.467682 812.386108,321.217834 748.772583,341.967438 
	C693.714539,359.926422 638.651001,377.868500 583.597900,395.842621 
	C572.336426,399.519348 573.856934,398.166687 573.856201,409.674652 
	C573.826294,863.318909 573.830688,1316.963135 573.830688,1770.607422 
	C573.830688,1771.607422 573.815247,1772.607666 573.834656,1773.607300 
	C574.015503,1782.931641 574.425537,1783.276123 583.724854,1780.378052 
	C626.300781,1767.109375 668.853577,1753.766113 711.431152,1740.502563 
	C727.952209,1735.356079 744.530457,1730.392700 761.047729,1725.234009 
	C763.628052,1724.428101 766.169739,1723.843140 768.861328,1723.812744 
	C777.430969,1723.715942 784.598450,1728.832153 786.062439,1736.118652 
	C787.926697,1745.396973 784.430420,1753.614746 776.169067,1756.783813 
	C765.922913,1760.714233 755.387085,1763.915039 744.901855,1767.192627 
	C706.463806,1779.208374 667.992310,1791.116943 629.538818,1803.083374 
	C608.245483,1809.709473 586.978088,1816.419800 565.661133,1822.968994 
	C561.902344,1824.123779 558.118591,1825.562012 553.997742,1824.899658 
	C545.195862,1823.484741 539.182190,1817.163452 538.287903,1808.009399 
	C537.997437,1805.036621 538.197327,1802.014404 538.197327,1799.014893 
	C538.195251,1331.037964 538.195312,863.061157 538.195374,395.084259 
	C538.195374,393.417664 538.174927,391.750793 538.199280,390.084564 
	C538.376343,377.983429 542.115112,372.490143 553.638245,368.528687 
	C563.074951,365.284485 572.717163,362.642944 582.198425,359.522186 
	C609.080627,350.673950 635.897095,341.625671 662.793274,332.820618 
	C733.019836,309.830261 803.277954,286.936310 873.518127,263.987579 
	C936.171326,243.517670 998.813110,223.012878 1061.467529,202.547043 
	C1131.392944,179.706177 1201.330078,156.901154 1271.256348,134.063202 
	C1332.015991,114.219139 1392.767578,94.350983 1454.291260,74.285995 
z"/>
<path fill="#E35E6B" opacity="1.000000" stroke="none" 
	d="
M2109.455322,2839.425293 
	C2076.895020,2862.050293 2044.914429,2884.250488 2012.781494,2906.556152 
	C2009.181519,2902.979248 2010.453247,2899.131104 2010.431396,2895.748535 
	C2010.047485,2836.416992 2010.361816,2777.074707 2009.347290,2717.754883 
	C2007.910767,2633.766846 2008.820312,2549.765625 2007.393311,2465.788086 
	C2005.937866,2380.132812 2006.842773,2294.465820 2005.424805,2208.819824 
	C2003.951660,2119.832031 2004.760742,2030.831543 2003.366089,1941.850952 
	C2002.405029,1880.525757 2002.540894,1819.198730 2001.901245,1757.875000 
	C2001.870239,1754.897217 2001.897339,1751.918945 2001.897339,1748.800537 
	C1997.093872,1747.427612 1994.625977,1750.701782 1991.839355,1752.625366 
	C1953.719604,1778.940796 1915.647095,1805.324951 1877.591553,1831.733032 
	C1820.370605,1871.440430 1763.175293,1911.184692 1705.948853,1950.883911 
	C1704.138428,1952.140015 1702.581543,1954.263428 1699.165771,1953.178711 
	C1697.950439,1950.396362 1698.538574,1947.060059 1698.537598,1943.860229 
	C1698.506470,1842.527222 1698.626709,1741.193970 1698.296753,1639.862061 
	C1698.270020,1631.653198 1701.309448,1627.305176 1707.701050,1623.023315 
	C1816.508301,1550.129639 1925.187134,1477.044312 2033.886841,1403.990112 
	C2155.863281,1322.013062 2277.833496,1240.026611 2399.802246,1158.037598 
	C2409.758545,1151.344604 2419.662109,1144.573120 2429.633789,1137.903198 
	C2432.507568,1135.981201 2434.600098,1134.188110 2434.239746,1129.987549 
	C2431.162598,1094.108398 2421.655273,1060.471558 2399.554932,1031.398071 
	C2377.888184,1002.895081 2350.405762,982.838684 2314.809082,975.190002 
	C2290.902832,970.053284 2267.140625,971.481079 2243.472656,976.834656 
	C2219.592041,982.236267 2196.918945,990.993896 2175.381348,1002.471313 
	C2096.861572,1044.314575 2018.471313,1086.400757 1940.031860,1128.394531 
	C1891.557739,1154.345947 1843.089233,1180.307739 1794.607544,1206.244751 
	C1658.564819,1279.025513 1522.516113,1351.795166 1386.470581,1424.570679 
	C1377.655640,1429.286011 1368.952881,1434.227905 1359.989990,1438.642334 
	C1355.441772,1440.882568 1353.514282,1443.930542 1354.028320,1448.875732 
	C1354.268311,1451.183960 1354.064697,1453.538086 1354.064697,1455.871460 
	C1354.064453,1906.869751 1354.065918,2357.868164 1354.058716,2808.866455 
	C1354.058472,2824.607178 1352.878662,2824.972412 1367.825562,2817.206787 
	C1415.139160,2792.625000 1462.457275,2768.052246 1509.780029,2743.488525 
	C1512.440308,2742.107666 1515.071045,2740.607422 1517.863647,2739.556152 
	C1526.199097,2736.417725 1534.994385,2739.635986 1539.409058,2747.240967 
	C1543.794189,2754.794922 1542.035645,2764.015869 1534.921997,2769.635742 
	C1532.853638,2771.269775 1530.416504,2772.472900 1528.057007,2773.697266 
	C1468.900269,2804.396729 1409.732178,2835.074463 1350.561035,2865.745850 
	C1348.194824,2866.972656 1345.860229,2868.325195 1343.371216,2869.238525 
	C1332.060425,2873.386475 1321.364258,2867.436279 1319.279053,2855.593994 
	C1318.536133,2851.375244 1318.724243,2846.967773 1318.724121,2842.646484 
	C1318.702759,2427.314697 1318.704468,2011.982788 1318.704468,1596.651001 
	C1318.704468,1544.984497 1318.703979,1493.318115 1318.706055,1441.651611 
	C1318.706177,1438.985107 1318.696899,1436.317993 1318.746582,1433.652222 
	C1318.909546,1424.891846 1322.674927,1418.656128 1330.677246,1414.465454 
	C1352.815918,1402.871582 1374.736328,1390.861572 1396.774048,1379.073975 
	C1536.641968,1304.260254 1676.521973,1229.468872 1816.390747,1154.656494 
	C1920.704468,1098.861450 2025.034668,1043.096924 2129.296143,987.204285 
	C2156.328369,972.712891 2183.255371,958.130493 2212.652100,948.713623 
	C2234.708740,941.647949 2257.249023,937.174194 2280.319336,936.807983 
	C2323.512451,936.122131 2362.385254,948.800293 2395.777588,976.811523 
	C2435.311523,1009.974548 2457.268555,1052.684692 2466.568604,1103.103516 
	C2469.390137,1118.400513 2469.517090,1133.393311 2469.531494,1148.578979 
	C2469.576904,1196.911377 2469.826904,1245.252563 2469.039795,1293.574707 
	C2468.133057,1349.232788 2468.367676,1404.889404 2468.179199,1460.546143 
	C2468.157715,1466.914795 2466.343506,1470.783569 2460.908203,1474.358765 
	C2402.439941,1512.817993 2344.244873,1551.692505 2285.702148,1590.036987 
	C2278.159912,1594.977051 2275.267090,1600.091553 2275.334229,1609.241943 
	C2276.025391,1703.571167 2275.565186,1797.911743 2276.683105,1892.234375 
	C2278.132812,2014.555908 2277.150635,2136.886230 2278.642334,2259.200195 
	C2280.154053,2383.188232 2279.485596,2507.182129 2280.542725,2631.169678 
	C2280.770020,2657.828125 2280.931152,2684.489990 2281.566162,2711.139893 
	C2281.719971,2717.593262 2279.596680,2721.338135 2274.279297,2725.004639 
	C2219.414795,2762.834473 2164.753174,2800.958496 2109.455322,2839.425293 
z"/>
<path fill="#555555" opacity="1.000000" stroke="none" 
	d="
M2244.762207,1158.559814 
	C2030.477783,1281.996460 1816.830688,1405.066040 1603.184448,1528.136963 
	C1602.029419,1528.802246 1600.950684,1529.650757 1599.726318,1530.135864 
	C1593.940552,1532.428467 1592.351318,1536.600464 1592.467773,1542.713501 
	C1592.994385,1570.368652 1593.085938,1598.032104 1593.301636,1625.692871 
	C1594.951904,1837.315796 1596.563721,2048.938965 1598.250122,2260.561523 
	C1599.492920,2416.526123 1600.827393,2572.489990 1602.127563,2728.454346 
	C1602.738647,2801.772217 1603.367065,2875.089844 1603.976562,2948.407715 
	C1604.001465,2951.405029 1604.172119,2954.433350 1603.830688,2957.395752 
	C1602.803833,2966.305908 1595.882812,2972.675293 1587.142334,2973.021729 
	C1578.329346,2973.371094 1570.978882,2967.717041 1569.359375,2958.744385 
	C1568.597778,2954.524902 1568.686279,2950.125000 1568.652710,2945.804688 
	C1567.695068,2822.497070 1566.814453,2699.188965 1565.830811,2575.881348 
	C1564.515137,2410.916016 1563.107910,2245.951660 1561.769287,2080.986328 
	C1560.430542,1916.021729 1559.134766,1751.056885 1557.800415,1586.092285 
	C1557.649536,1567.430054 1557.748047,1548.753906 1557.013184,1530.112671 
	C1556.564819,1518.741333 1560.994629,1511.611206 1570.869385,1505.939697 
	C1719.376587,1420.646973 1867.739136,1335.102417 2016.134521,1249.614746 
	C2105.344971,1198.222290 2194.551025,1146.821655 2283.772461,1095.448364 
	C2286.650391,1093.791138 2289.542969,1091.990479 2292.660400,1090.951904 
	C2300.670166,1088.283569 2309.122559,1091.815430 2313.196777,1099.135620 
	C2317.121338,1106.187134 2315.961426,1114.571899 2309.951660,1120.168701 
	C2307.790771,1122.181152 2305.142578,1123.729492 2302.562744,1125.224121 
	C2283.530029,1136.251343 2264.458496,1147.211548 2244.762207,1158.559814 
z"/>
<path fill="#555555" opacity="1.000000" stroke="none" 
	d="
M1316.893799,311.123108 
	C1398.669189,264.028839 1479.814209,217.311188 1560.966064,170.605331 
	C1563.274048,169.276947 1565.556030,167.822998 1568.018799,166.858246 
	C1576.342407,163.597672 1585.333008,166.703659 1589.736816,174.165909 
	C1594.149658,181.643478 1592.507202,190.968262 1585.537842,196.664810 
	C1583.236206,198.546158 1580.559204,199.995285 1577.965454,201.488586 
	C1350.124756,332.668610 1122.275391,463.833679 894.426025,594.998718 
	C888.650391,598.323547 883.062805,602.058899 877.035950,604.841309 
	C870.276733,607.961914 868.603577,612.657349 868.730896,619.863037 
	C869.419617,658.850952 869.586670,697.848206 869.898132,736.842590 
	C871.322632,915.152527 872.724915,1093.462646 874.154663,1271.772583 
	C876.161682,1522.072388 878.186584,1772.372314 880.196289,2022.672119 
	C880.223022,2026.003662 880.413330,2029.362793 880.074524,2032.662598 
	C879.161743,2041.553833 872.227844,2047.950562 863.452454,2048.291992 
	C854.764038,2048.630127 847.270874,2042.731445 845.682556,2033.938843 
	C845.095764,2030.690308 845.140442,2027.305420 845.113892,2023.981079 
	C843.994995,1883.999390 842.930664,1744.017212 841.796631,1604.035645 
	C839.833679,1361.736084 837.837769,1119.436646 835.838196,877.137451 
	C835.090088,786.482727 834.393005,695.827332 833.386902,605.175415 
	C833.265991,594.280640 837.068481,587.155884 846.631042,581.664978 
	C1003.247253,491.735535 1159.742065,401.594696 1316.893799,311.123108 
z"/>
</svg>